<svg xmlns="http://www.w3.org/2000/svg" width="77" height="84">
    <path fill-rule="evenodd" fill="#B7D1E6" d="M76.421 26.434 72.733 30.4l.871 4.732c.124.725-.168 1.444-.761 2.668-.336-.547-.729-.423-1.124-.423-.304 0-.609-.074-.892-.222l-4.559-2.404-4.56 2.404c-.118.342-1.421.287-2.015.745-.593-1.324-.885-2.043-.761-2.768l.871-4.732-3.689-3.966a1.915 1.915 0 0 1-.485-1.968 1.907 1.907 0 0 1 1.545-1.306l5.098-.742 2.28-4.633a1.9 1.9 0 0 1 1.715-1.07c.833 0 1.392.41 1.717 1.07l2.279 4.633 5.098.742c1.509.107 1.318.607 1.545 1.306.226.7.041 1.455-.485 1.968zm-6.791-1.623c-.03-.091-1.163-.483-1.442-1.05l-1.921-3.904-1.921 3.905c.324.566-.817.958-1.44 1.049l-4.297.626 3.109 3.039c.451.441.656 1.077.55 1.699l-.734 4.292 3.843-2.027a1.921 1.921 0 0 1 1.781 0l3.942 2.027-.833-4.292a1.923 1.923 0 0 1 .55-1.699l3.109-3.039-4.296-.626zm-9.686-4.351-2.324.279a1.217 1.217 0 0 1-.35.052c-.529 0-1.017-.345-.33-.879-1.021-.591-.732-1.209-.192-1.463-1.538-1.041-3.541-1.938-5.413-2.671a1.23 1.23 0 0 1 .892-2.291 38.06 38.06 0 0 1 6.14 3.072v-.213c0-.68.549-1.231 1.227-1.231.677 0 1.226.551 1.226 1.231v2.521c0 .544-.356 1.023-.876 1.593zM48.343 32.444a13.634 13.634 0 0 0-9.85-4.168 13.737 13.737 0 0 0-9.008 3.369 13.812 13.812 0 0 0-4.608 8.462c-.11.764-.32 1.51-.626 2.218l-2.663 6.157c-1.124 3.348-.765 5.494.961 7.737 1.641 1.913 3.647 2.977 5.986 2.987a11.01 11.01 0 0 1-1.059-4.722v-8.52c0-2.224.992-5.724 2.792-7.979.344-.43.834-.7 1.38-.758a2.03 2.03 0 0 1 1.508.448l.457.805c1.836 1.066 4.151 1.926 6.517 1.989l7.57.182c.738.037 1.809 1.14 1.809 2.512v11.321a11.01 11.01 0 0 1-1.059 4.722c2.339-.01 4.516-1.075 5.987-2.987 1.726-2.243 2.085-4.389.96-7.737l-2.662-6.157a8.726 8.726 0 0 1-.627-2.218 13.844 13.844 0 0 0-.989-3.509 1.232 1.232 0 0 1 .64-1.617 1.224 1.224 0 0 1 1.612.64 16.338 16.338 0 0 1 1.165 4.135c.079.548.23 1.083.449 1.59l2.663 6.157c1.485 3.435 1.011 7.255-1.269 10.22-1.95 2.535-4.84 3.948-7.943 3.948-.493 0-.992-.037-1.492-.109a11.07 11.07 0 0 1-3.43 2.75v2.2l6.272 2.838c.193-.237.391-.15.624-.04.82.289.876 1.022.588 1.637a1.228 1.228 0 0 1-1.632.589c-.188-.088-.156-.158-.493-.217l-5.646-1.849c-.705 2.33-2.634 3.074-4.898 3.074-1.679 0-4.193-.744-4.898-3.074l-5.645 1.848c-3.459 1.392-4.866 4.932-4.866 8.445v3.006c0 .679-1.377 1.23-2.054 1.23a1.228 1.228 0 0 1-1.227-1.23v-3.006c0-4.623 2.839-8.96 7.233-10.413l6.272-2.838v-2.374c-1.186-.663-2.237-1.539-2.724-2.576-.879.072-1 .109-1.87.109-3.104 0-5.993-1.413-7.944-3.948-2.279-2.965-2.754-6.785-1.268-10.22L22 41.346c.22-.507.37-1.042.449-1.59.951-3.869 2.484-7.411 5.43-9.97a16.177 16.177 0 0 1 10.613-3.97c4.406 0 8.708 1.743 12.498 4.91-.418.486-.428 1.265-.22 1.739-1.178.474-1.954.465-2.427-.021zm-12.746 34.9c0 1.511 1.226 3.496 2.732 3.496 1.507 0 3.281-1.985 3.281-3.496v-2.118c-1.373.198-2.233.306-3.117.306-1.002 0-1.973-.137-2.896-.39v2.202zm-5.667-12.86c0 4.736 3.841 9.236 8.563 9.236 4.721 0 9.067-4.5 9.067-9.236V43.163c0-.028-.22-.051-.06-.052l-6.84-.183c-3.499-.077-6.341-1.132-8.01-2.971l-.717-.108a10.37 10.37 0 0 0-2.003 6.115v8.52zm8.399-32.643c-6.004 0-10.889-4.899-10.889-10.921C27.44 4.899 32.325 0 38.329 0c6.005 0 10.89 4.899 10.89 10.92 0 6.022-4.885 10.921-10.89 10.921zm0-19.382c-4.651 0-8.436 3.796-8.436 8.461 0 4.666 3.785 8.461 8.436 8.461 4.652 0 8.436-3.795 8.436-8.461 0-4.665-3.784-8.461-8.436-8.461zm-.422 12.801c-.24.005-.554.125-.507.125-.674 0-.988-.12-1.227-.125l-1.693-1.932c-.38-.48-.38-.648 0-1.74a1.225 1.225 0 0 1 1.735 0l1.185.828 4.503-4.878c.479.042 1.255.042 1.734 0 .479.652.479 1.26 0 1.741l-5.73 5.981zm-12.43 2.32a1.229 1.229 0 0 1-1.184.913c-.105 0 .517-.014-.318-.043a1.23 1.23 0 0 1-.868-1.506l.064-.239a35.807 35.807 0 0 0-3.556 1.921 1.224 1.224 0 0 1-1.687-.404 1.232 1.232 0 0 1 .403-1.692 38.35 38.35 0 0 1 3.609-1.964 1.23 1.23 0 0 1-.308-1.278 1.225 1.225 0 0 1 1.557-.768l2.247.766c1.034.209.957.858.79 1.483l-.749 2.811zm-7.665 14.584-3.912 6.11v.881c0 .352-.104.68-.281.956v1.273c0 1.98-1.479 3.59-3.209 3.59h-.871a3.588 3.588 0 0 1-3.579-3.59v-1.273a1.765 1.765 0 0 1-.28-.956v-.881l-3.556-5.552c-.366-.572-.201-1.333.369-1.502 1.137-.565 1.329-.4 1.695.173l3.75 5.855c.712.199.195.429.195.665v.56h.43v-6.159a2.453 2.453 0 0 1-2.226-2.441v-2.019A2.453 2.453 0 0 1 8.783 25.4h2.013a2.453 2.453 0 0 1 2.446 2.454v2.019c0 1.278-.98 2.329-2.082 2.441v6.159h.287v-.56c0-.236.067-.466.194-.665l4.121-6.435.03-.044c.874-1.243 1.336-2.149 1.336-4.235a7.37 7.37 0 0 0-3.204-6.081c-2.053-.983-4.642-1.661-7.102-.699-1.721.674-3.098 2.043-3.362 3.76-.88 1.182-1.074 2.381-.988 4.256.049-.015-.342.574-1.134.623-.678.051-.588-.46-1.088-1.137.62-1.555-.088-3.118.516-4.648a9.154 9.154 0 0 1 5.164-5.146c3.228-1.263 6.645-.913 9.378.96a9.83 9.83 0 0 1 4.273 8.113 9.775 9.775 0 0 1-1.769 5.629zm-7.023-4.31-2.006.007.007 2.012.924-.004a.94.94 0 0 1 .075-.003l.066.002.942-.002-.008-2.012zm.377 13.079H8.413v.451c0 1.316.505 1.129 1.126 1.129h.871c.251 0 .756.187.756-1.129v-.451zm42.023 31.858c.553-.392 1.319-.261 1.71 1.059 1.387 1.65 2.291 3.508 2.291 5.913v3.006c0 .68-.72 1.23-1.397 1.23-.678 0-1.227-.55-1.227-1.23v-3.006c0-1.892-.577-3.223-1.669-5.257a1.233 1.233 0 0 1 .292-1.715z"/>
</svg>
