<svg xmlns="http://www.w3.org/2000/svg" width="85" height="84">
    <defs>
         <linearGradient id="fk9ve8nhla" x1="64.279%" x2="0%" y1="76.604%" y2="0%">
            <stop offset="30%" stop-color="#B7D1E6" stop-opacity=".74"/>
            <stop offset="61%" stop-color="#B7D1E6" stop-opacity=".37"/>
            <stop offset="100%" stop-color="#B7D1E6" stop-opacity=".74"/>
            <stop offset="100%" stop-color="#B7D1E6" stop-opacity=".74"/>
        </linearGradient> 
    </defs>
    <path fill-rule="evenodd" fill="#B7D1E6" d="M81.804 65.97h-1.593l3.511 16.514a1.253 1.253 0 0 1-1.218 1.515c-.575 0-1.092-.403-1.217-.099l-3.623-17.93h-8.051L65.989 83.9c-.125-.304-.641.099-1.216.099a1.252 1.252 0 0 1-1.219-1.515L67.66 65.97h-2.286c.256 0-.615-.048-.904-.134L62.299 82.43c-.149.729-1.105 1.569-1.549 1.569h-3.322a2.253 2.253 0 0 1-2.244-2.258V57.484a7.27 7.27 0 0 1 1.78-4.774h-5.409a10.243 10.243 0 0 1-4.244 4.755c-.85.492-1.378 1.386-1.378 2.33v21.698h1.972c.688 0 1.245 1.057 1.245 1.253 0 .692-.557 1.253-1.245 1.253h-11.35a1.249 1.249 0 0 1-1.245-1.253c0-.196.557-1.253 1.245-1.253h1.756V59.656c0-.931-.495-1.787-1.325-2.289a10.264 10.264 0 0 1-4.081-4.657H28.35c.792 1.278 1.465 2.948 1.465 4.774v24.257a2.254 2.254 0 0 1-2.244 2.258h-2.648c-1.118 0-2.074-.841-2.223-1.569l-2.172-16.594a3.197 3.197 0 0 1-.903.133h-1.692l3.512 16.515a1.254 1.254 0 0 1-1.219 1.515c-.575 0-1.092-.403-.326-.199l-4.514-17.831H7.335L3.712 83.8c-.125-.204-.012.199-1.217.199a1.252 1.252 0 0 1-1.218-1.515l3.511-16.515H3.195C1.433 65.969 0 64.528 0 62.757V60.72c0-1.34.557-1.901 1.244-1.901h2.333c-.802-1.061-1.279-2.383-1.279-3.519l-.001-18.038a9.862 9.862 0 0 1 2.881-6.998c.037-.038.076-.073.113-.109-.977-.608-1.769-1.512-1.751-2.627-.782-.703-.932-.748-.932-2.219V23.23c0-3.351 2.542-5.909 5.667-5.909s5.667 2.558 5.667 5.909v2.079a5.693 5.693 0 0 1-1.536 3.896 5.843 5.843 0 0 1 2.412 2.57l4.672 7.404 6.86 1.169c2.42.457 4.504 2.563 5.01 5.211h22.277a6.506 6.506 0 0 1 5.325-5.211l6.986-1.169 4.233-7.407c.432-.894 1.063-1.64 2.619-2.197-1.998-1.046-2.44-2.594-2.44-4.317v-2.286a.69.69 0 0 1 .12-.349c-1.011-.299-1.269-1.001-1.008-1.493.218-.624.728-.912 1.247-.868a5.669 5.669 0 0 1 4.86-2.989c.565-1.367 1.9-2.32 3.771-2.32 1.751 0 3.431 1.693 3.431 3.773 0 1.219-.596 2.954-1.539 3.04.084.389.129.792.129 1.206v2.286c0 2.432-.845 3.426-2.157 4.472.211.163.414.98.605.534a9.862 9.862 0 0 1 2.881 6.998v3.32a1.25 1.25 0 0 1-1.245 1.253 1.25 1.25 0 0 1-1.245-1.253v-3.32c0-1.975-.764-3.831-1.63-4.912-1.211-1.009-2.12-1.391-3.083-1.391-1.342 0-2.526.743-3.091 1.939-.014.028-.029.058-.045.086l-3.021 5.823-.03.006-1.496 2.129c-.186.325-.507.55-.875.612l-7.569 1.267c-1.52.919-2.715 1.332-3.167 2.738h12.193l5.398-5.832c.468-.505 1.706-.533 1.759-.062 1.007.472 1.287 1.265.063 1.771l-5.767 6.229a1.31 1.31 0 0 1-.162.146l.12 2.393H80.21V45.76c0-.08.558-1.253 1.245-1.253.688 0 1.245 1.173 1.245 1.253v9.64c0 1.036-.478 2.358-1.28 3.419h2.333c.688 0 1.245.562 1.246 1.911v2.027c0 1.772-1.433 3.213-3.195 3.213zm-1.701-46.588c.118-.195.189-.419.189-.656 0-.456-.564-1.267-.942-1.267-.661 0-.975.141-1.202.369a5.72 5.72 0 0 1 1.955 1.554zm-7.576 5.876c0 1.952 1.425 3.197 3.177 3.197s3.177-1.245 3.177-3.197v-2.286c0-1.762-1.425-3.196-3.177-3.196-1.103 0-2.075.568-2.124 1.43l1.568.907c.563.244.985.722 1.16 1.313l.164.557a1.254 1.254 0 0 1-1.194 1.61c-.536 0-1.032-.352-.428-.896l-.872-.364-1.451-.629v1.554zM21.11 58.816c.525 0 1.052.463 1.135 1.085l2.893 21.592h2.186V57.484c0-2.633-2.129-4.774-4.745-4.774H4.788v2.69c0 1.705 1.699 3.416 3.789 3.416H21.11zM2.49 61.325v1.432c0 .39.316.708.705.708h16.429c.218 0 .806-.103.551-.267l-.251-1.873H2.49zm8.962-38.065-2.473 1.073-.107.364a1.247 1.247 0 0 1-1.549.844 1.255 1.255 0 0 1-.838-1.559l.165-.556a2.062 2.062 0 0 1 1.159-1.313l2.823-1.226c-.132-.649-1.422-1.06-2.357-1.06-1.752 0-2.295 1.434-2.295 3.403v2.078c0 .432-.798.851-.633 1.244a3.175 3.175 0 0 0 2.928 1.954c1.995 0 3.177-.796 3.177-3.198V23.26zm14.175 19.561-7.047-1.267c-.889-.062-1.211-.287-1.397-.612l-1.217-2.131-.003-.004-3.068-5.371-.259-.452-.001-.002a1.128 1.128 0 0 1-.044-.084c-.331-1.196-1.749-1.939-3.09-1.939-.963 0-1.873.382-2.561 1.381-1.388 1.091-2.153 2.947-2.153 4.922v12.942H15.19l.005-.102a4.407 4.407 0 0 1-.381-1.794v-1.003l-5.433-5.869a1.258 1.258 0 0 1 .063-1.771 1.24 1.24 0 0 1 1.759.062l5.398 5.832h12.193c-.452-1.406-1.647-1.819-3.167-2.738zm41.527 5.819h-49.85v-.332c0 1.045.846 1.896 1.885 1.896h17.38c.687 0 1.244.561 1.244 1.252 0 .692-.557 1.253-1.244 1.253h-.849a7.755 7.755 0 0 0 2.549 2.511c1.585.958 2.531 2.617 2.531 4.436v21.837h2.643V59.795c0-1.838 1.005-3.562 3.227-4.501.493-.636 2.1-1.526 2.07-2.585h-7.304a1.25 1.25 0 0 1-1.245-1.253 1.25 1.25 0 0 1 1.245-1.252H65.27a1.892 1.892 0 0 0 1.884-1.896v.332zm13.056 4.07H62.418c-2.616 0-4.744 2.141-4.744 4.774v24.009h2.185l2.893-21.592a1.246 1.246 0 0 1 1.234-1.085h12.435c2.089 0 3.789-1.711 3.789-3.416v-2.69zm2.298 8.615H65.74l-.917 1.873a.71.71 0 0 0 .55.267h16.429a.708.708 0 0 0 .706-.708v-1.432zM33.79 10.652c.688 0 1.56.561 1.56 1.253 0 .692-.872 1.253-1.56 1.253h-8.967a1.249 1.249 0 0 1-1.245-1.253c0-.692.557-1.253 1.245-1.253h8.967zm-8.967-5.421h13.728a1.25 1.25 0 0 1 1.245 1.252c0 .693-.558 1.253-1.245 1.253H24.823a1.25 1.25 0 0 1-1.245-1.253 1.25 1.25 0 0 1 1.245-1.252zm37.11 22.445v3.014c0 .727-.406 1.94-1.06 1.683-.255.122-.526.182-.093.182-1.12 0-1.532-.145-1.872-.425l-5.393-4.452H42.323c-2.108 0-3.823-1.724-3.823-3.845V12.141c0-1.941 1.715-3.846 3.823-3.846h.912v-4.45c0-.74-.598-1.34-1.333-1.34H22.437c-.735 0-1.333.6-1.333 1.34V15.91c0-.08.598.522 1.333.522h.126a2.228 2.228 0 0 1 2.219 2.233v1.924l4.424-3.651a2.22 2.22 0 0 1 1.407-.506h3.594c.688 0 1.245.561 1.245 1.253 0 .691-.557 1.252-1.245 1.252H30.71l-5.394 4.452a1.835 1.835 0 0 1-1.965.242 1.845 1.845 0 0 1-1.059-1.682v-3.015c-2.041-.076-3.679-1.771-3.679-3.024V3.845C18.613 1.724 20.328 0 22.436 0h19.466c2.198 0 3.823 1.724 3.823 3.845v4.45h16.064c2.107 0 3.822 1.915 3.822 3.846v11.692c0 2.072-1.637 3.767-3.678 3.843zm1.188-15.535c0-.739-.597-1.34-1.332-1.34H42.323c-.735 0-1.332.601-1.332 1.34v11.693c0 .739.597 1.34 1.332 1.34h11.289c.512 0 1.012.18 1.588.507l4.243 3.65v-1.923a2.23 2.23 0 0 1 2.22-2.234h.126c.734 0 1.332-.601 1.332-1.34V12.141zm-4.444 4.282H44.95a1.25 1.25 0 0 1-1.245-1.253c0-.692.557-1.253 1.245-1.253h13.727c.688 0 1.245.561 1.245 1.253a1.25 1.25 0 0 1-1.245 1.253zM44.949 19.34h8.967c.688 0 1.245.56 1.245 1.252s-.557 1.253-1.245 1.253h-8.967a1.25 1.25 0 0 1-1.245-1.253c0-.692.558-1.252 1.245-1.252z"/>
    <path fill="url(#fk9ve8nhla)" d="M81.804 65.97h-1.593l3.511 16.514a1.253 1.253 0 0 1-1.218 1.515c-.575 0-1.092-.403-1.217-.099l-3.623-17.93h-8.051L65.989 83.9c-.125-.304-.641.099-1.216.099a1.252 1.252 0 0 1-1.219-1.515L67.66 65.97h-2.286c.256 0-.615-.048-.904-.134L62.299 82.43c-.149.729-1.105 1.569-1.549 1.569h-3.322a2.253 2.253 0 0 1-2.244-2.258V57.484a7.27 7.27 0 0 1 1.78-4.774h-5.409a10.243 10.243 0 0 1-4.244 4.755c-.85.492-1.378 1.386-1.378 2.33v21.698h1.972c.688 0 1.245 1.057 1.245 1.253 0 .692-.557 1.253-1.245 1.253h-11.35a1.249 1.249 0 0 1-1.245-1.253c0-.196.557-1.253 1.245-1.253h1.756V59.656c0-.931-.495-1.787-1.325-2.289a10.264 10.264 0 0 1-4.081-4.657H28.35c.792 1.278 1.465 2.948 1.465 4.774v24.257a2.254 2.254 0 0 1-2.244 2.258h-2.648c-1.118 0-2.074-.841-2.223-1.569l-2.172-16.594a3.197 3.197 0 0 1-.903.133h-1.692l3.512 16.515a1.254 1.254 0 0 1-1.219 1.515c-.575 0-1.092-.403-.326-.199l-4.514-17.831H7.335L3.712 83.8c-.125-.204-.012.199-1.217.199a1.252 1.252 0 0 1-1.218-1.515l3.511-16.515H3.195C1.433 65.969 0 64.528 0 62.757V60.72c0-1.34.557-1.901 1.244-1.901h2.333c-.802-1.061-1.279-2.383-1.279-3.519l-.001-18.038a9.862 9.862 0 0 1 2.881-6.998c.037-.038.076-.073.113-.109-.977-.608-1.769-1.512-1.751-2.627-.782-.703-.932-.748-.932-2.219V23.23c0-3.351 2.542-5.909 5.667-5.909s5.667 2.558 5.667 5.909v2.079a5.693 5.693 0 0 1-1.536 3.896 5.843 5.843 0 0 1 2.412 2.57l4.672 7.404 6.86 1.169c2.42.457 4.504 2.563 5.01 5.211h22.277a6.506 6.506 0 0 1 5.325-5.211l6.986-1.169 4.233-7.407c.432-.894 1.063-1.64 2.619-2.197-1.998-1.046-2.44-2.594-2.44-4.317v-2.286a.69.69 0 0 1 .12-.349c-1.011-.299-1.269-1.001-1.008-1.493.218-.624.728-.912 1.247-.868a5.669 5.669 0 0 1 4.86-2.989c.565-1.367 1.9-2.32 3.771-2.32 1.751 0 3.431 1.693 3.431 3.773 0 1.219-.596 2.954-1.539 3.04.084.389.129.792.129 1.206v2.286c0 2.432-.845 3.426-2.157 4.472.211.163.414.98.605.534a9.862 9.862 0 0 1 2.881 6.998v3.32a1.25 1.25 0 0 1-1.245 1.253 1.25 1.25 0 0 1-1.245-1.253v-3.32c0-1.975-.764-3.831-1.63-4.912-1.211-1.009-2.12-1.391-3.083-1.391-1.342 0-2.526.743-3.091 1.939-.014.028-.029.058-.045.086l-3.021 5.823-.03.006-1.496 2.129c-.186.325-.507.55-.875.612l-7.569 1.267c-1.52.919-2.715 1.332-3.167 2.738h12.193l5.398-5.832c.468-.505 1.706-.533 1.759-.062 1.007.472 1.287 1.265.063 1.771l-5.767 6.229a1.31 1.31 0 0 1-.162.146l.12 2.393H80.21V45.76c0-.08.558-1.253 1.245-1.253.688 0 1.245 1.173 1.245 1.253v9.64c0 1.036-.478 2.358-1.28 3.419h2.333c.688 0 1.245.562 1.246 1.911v2.027c0 1.772-1.433 3.213-3.195 3.213zm-1.701-46.588c.118-.195.189-.419.189-.656 0-.456-.564-1.267-.942-1.267-.661 0-.975.141-1.202.369a5.72 5.72 0 0 1 1.955 1.554zm-7.576 5.876c0 1.952 1.425 3.197 3.177 3.197s3.177-1.245 3.177-3.197v-2.286c0-1.762-1.425-3.196-3.177-3.196-1.103 0-2.075.568-2.124 1.43l1.568.907c.563.244.985.722 1.16 1.313l.164.557a1.254 1.254 0 0 1-1.194 1.61c-.536 0-1.032-.352-.428-.896l-.872-.364-1.451-.629v1.554zM21.11 58.816c.525 0 1.052.463 1.135 1.085l2.893 21.592h2.186V57.484c0-2.633-2.129-4.774-4.745-4.774H4.788v2.69c0 1.705 1.699 3.416 3.789 3.416H21.11zM2.49 61.325v1.432c0 .39.316.708.705.708h16.429c.218 0 .806-.103.551-.267l-.251-1.873H2.49zm8.962-38.065-2.473 1.073-.107.364a1.247 1.247 0 0 1-1.549.844 1.255 1.255 0 0 1-.838-1.559l.165-.556a2.062 2.062 0 0 1 1.159-1.313l2.823-1.226c-.132-.649-1.422-1.06-2.357-1.06-1.752 0-2.295 1.434-2.295 3.403v2.078c0 .432-.798.851-.633 1.244a3.175 3.175 0 0 0 2.928 1.954c1.995 0 3.177-.796 3.177-3.198V23.26zm14.175 19.561-7.047-1.267c-.889-.062-1.211-.287-1.397-.612l-1.217-2.131-.003-.004-3.068-5.371-.259-.452-.001-.002a1.128 1.128 0 0 1-.044-.084c-.331-1.196-1.749-1.939-3.09-1.939-.963 0-1.873.382-2.561 1.381-1.388 1.091-2.153 2.947-2.153 4.922v12.942H15.19l.005-.102a4.407 4.407 0 0 1-.381-1.794v-1.003l-5.433-5.869a1.258 1.258 0 0 1 .063-1.771 1.24 1.24 0 0 1 1.759.062l5.398 5.832h12.193c-.452-1.406-1.647-1.819-3.167-2.738zm41.527 5.819h-49.85v-.332c0 1.045.846 1.896 1.885 1.896h17.38c.687 0 1.244.561 1.244 1.252 0 .692-.557 1.253-1.244 1.253h-.849a7.755 7.755 0 0 0 2.549 2.511c1.585.958 2.531 2.617 2.531 4.436v21.837h2.643V59.795c0-1.838 1.005-3.562 3.227-4.501.493-.636 2.1-1.526 2.07-2.585h-7.304a1.25 1.25 0 0 1-1.245-1.253 1.25 1.25 0 0 1 1.245-1.252H65.27a1.892 1.892 0 0 0 1.884-1.896v.332zm13.056 4.07H62.418c-2.616 0-4.744 2.141-4.744 4.774v24.009h2.185l2.893-21.592a1.246 1.246 0 0 1 1.234-1.085h12.435c2.089 0 3.789-1.711 3.789-3.416v-2.69zm2.298 8.615H65.74l-.917 1.873a.71.71 0 0 0 .55.267h16.429a.708.708 0 0 0 .706-.708v-1.432zM33.79 10.652c.688 0 1.56.561 1.56 1.253 0 .692-.872 1.253-1.56 1.253h-8.967a1.249 1.249 0 0 1-1.245-1.253c0-.692.557-1.253 1.245-1.253h8.967zm-8.967-5.421h13.728a1.25 1.25 0 0 1 1.245 1.252c0 .693-.558 1.253-1.245 1.253H24.823a1.25 1.25 0 0 1-1.245-1.253 1.25 1.25 0 0 1 1.245-1.252zm37.11 22.445v3.014c0 .727-.406 1.94-1.06 1.683-.255.122-.526.182-.093.182-1.12 0-1.532-.145-1.872-.425l-5.393-4.452H42.323c-2.108 0-3.823-1.724-3.823-3.845V12.141c0-1.941 1.715-3.846 3.823-3.846h.912v-4.45c0-.74-.598-1.34-1.333-1.34H22.437c-.735 0-1.333.6-1.333 1.34V15.91c0-.08.598.522 1.333.522h.126a2.228 2.228 0 0 1 2.219 2.233v1.924l4.424-3.651a2.22 2.22 0 0 1 1.407-.506h3.594c.688 0 1.245.561 1.245 1.253 0 .691-.557 1.252-1.245 1.252H30.71l-5.394 4.452a1.835 1.835 0 0 1-1.965.242 1.845 1.845 0 0 1-1.059-1.682v-3.015c-2.041-.076-3.679-1.771-3.679-3.024V3.845C18.613 1.724 20.328 0 22.436 0h19.466c2.198 0 3.823 1.724 3.823 3.845v4.45h16.064c2.107 0 3.822 1.915 3.822 3.846v11.692c0 2.072-1.637 3.767-3.678 3.843zm1.188-15.535c0-.739-.597-1.34-1.332-1.34H42.323c-.735 0-1.332.601-1.332 1.34v11.693c0 .739.597 1.34 1.332 1.34h11.289c.512 0 1.012.18 1.588.507l4.243 3.65v-1.923a2.23 2.23 0 0 1 2.22-2.234h.126c.734 0 1.332-.601 1.332-1.34V12.141zm-4.444 4.282H44.95a1.25 1.25 0 0 1-1.245-1.253c0-.692.557-1.253 1.245-1.253h13.727c.688 0 1.245.561 1.245 1.253a1.25 1.25 0 0 1-1.245 1.253zM44.949 19.34h8.967c.688 0 1.245.56 1.245 1.252s-.557 1.253-1.245 1.253h-8.967a1.25 1.25 0 0 1-1.245-1.253c0-.692.558-1.252 1.245-1.252z"/>
</svg>
