<svg xmlns="http://www.w3.org/2000/svg" width="77" height="85">
    <path fill-rule="evenodd" fill="#B7D1E6" d="M69.331 84.999H7.668C3.44 84.999 0 81.559 0 77.331V33.83c0-1.543 1.255-2.52 2.799-2.52H8.31v-.849c0-1.001.873-2.568 2.289-2.568h9.992a1.247 1.247 0 0 1 0 2.494h-9.992a.074.074 0 0 0-.074.074v38.466h9.19a1.246 1.246 0 0 1 0 2.494h-9.19v4.749c0 .383.312.694.695.694h26.006c-.563-3.092-3.275-5.443-6.527-5.443H25.33c-.986 0-1.544-.559-1.544-1.248 0-.688.558-1.246 1.544-1.246h5.369c2.613 0 4.971 1.393 6.637 2.869V55.667a1.247 1.247 0 0 1 2.493 0v16.129c1.666-1.476 4.025-2.869 6.637-2.869H66.64V50.983a1.247 1.247 0 1 1 2.494 0V76.17a3.193 3.193 0 0 1-3.189 3.189H11.22c-1.758 0-2.91-1.431-2.91-3.189V33.524H2.799a.307.307 0 0 0-.306.306v43.501a5.18 5.18 0 0 0 5.175 5.175h61.663a5.182 5.182 0 0 0 5.175-5.175V33.83a.307.307 0 0 0-.306-.306h-5.066v12.141a1.247 1.247 0 1 1-2.494 0V30.461a.074.074 0 0 0-.074-.074h-9.992a1.246 1.246 0 0 1 0-2.494h9.992c1.416 0 2.568 1.567 2.568 2.568v.849H74.2c1.544 0 2.799.977 2.799 2.52v43.501c0 4.228-3.44 7.668-7.668 7.668zm-3.386-8.135a.695.695 0 0 0 .695-.694v-4.75H46.466c-3.252 0-5.964 2.352-6.527 5.444h26.006zm-2.801-57.178c-.293 0-.586-.102-.823-.309l-2.72-2.39c.229-.454-.281-1.242-.114-1.759a1.246 1.246 0 0 1 1.759-.115l2.721 2.389c.517.455.568 1.242.843 1.76-.975.28-1.32.424-1.666.424zM61.246 9.157c.654.209-.53.31-.822.31.356 0-.691-.143-.937-.037-.167-.904.343-1.692.114-2.147l2.72-2.388c.518-.454 1.306-.403 2.489 1.005-.275-.373-.326.415-.843.869l-2.721 2.388zM47.63 48.346h13.262a1.247 1.247 0 0 1 0 2.494H47.63c-1.256 0-1.814-.559-1.814-1.248 0-.688.558-1.246 1.814-1.246zm1.985-5.096c0-.689.558-.95 1.246-.95h12.283c.689 0 1.247.261 1.247.95s-.558 1.246-1.247 1.246H50.861a1.246 1.246 0 0 1-1.246-1.246zM47.63 60.495h13.262c.688 0 1.247 1.045 1.247 1.247 0 .689-.559 1.247-1.247 1.247H47.63c-1.256 0-1.814-.558-1.814-1.247 0-.202.558-1.247 1.814-1.247zm0-6.075h13.262a1.248 1.248 0 0 1 0 2.494H47.63c-1.256 0-1.814-.558-1.814-1.247 0-.688.558-1.247 1.814-1.247zM12.774 43.25c0-.689.559-.95 1.436-.95h12.094c.688 0 1.247.261 1.247.95s-.559 1.246-1.247 1.246H14.21c-.877 0-1.436-.557-1.436-1.246zm3.499 5.096h13.829a1.246 1.246 0 1 1 0 2.494H16.273c-.688 0-1.003-.559-1.003-1.248 0-.688.315-1.246 1.003-1.246zm0 12.149h13.829c.689 0 1.247 1.045 1.247 1.247 0 .689-.558 1.247-1.247 1.247H16.273c-.688 0-1.003-.558-1.003-1.247 0-.202.315-1.247 1.003-1.247zm0-6.075h13.829a1.247 1.247 0 0 1 0 2.494H16.273c-.688 0-1.003-.558-1.003-1.247 0-.688.315-1.247 1.003-1.247zm29.14-14.261v1.249a3.092 3.092 0 0 1-1.841 2.823v2.109a4.029 4.029 0 0 1-4.024 4.024h-1.929a4.028 4.028 0 0 1-4.024-4.024v-2.109a3.091 3.091 0 0 1-1.842-2.823v-1.249L23.986 28.67c-1.326-2.49-2.261-3.83-2.778-6.834.332-.671.265-1.34.936-1.494.67-.155 1.34.264 1.495.936 1.211 1.939 1.253 3.972 2.761 5.375l.3.045 7.79 12.422c-.312.2-.243.434-.243.674v1.615c0 .298.222.543.509.586l-.794-13.471h-1.421a3.69 3.69 0 0 1-3.686-3.685v-.152c0-2.032 1.654-3.487 3.686-3.487 1.949 0 3.566 1.325 3.68 3.27l.092 1.84h4.373l.092-1.84c.114-1.945 1.731-3.27 3.679-3.27 2.033 0 3.686 1.455 3.686 3.487v.152a3.69 3.69 0 0 1-3.686 3.685H43.37L42.243 42.3h.081c.328 0 .595-.564.595-.891v-1.615c0-.24.068-.474.197-.674l8.834-12.422c-.845-.015-.835-.031-.824-.045 1.826-2.033 2.792-5.553 2.792-8.825 0-8.456-6.528-15.334-15.335-15.334-3.843 0-6.933 1.426-10.35 4.018-2.814 3.358-4.56 6.076-4.916 9.857-.065 1.181-.675 1.189-1.359 1.125a1.246 1.246 0 0 1-1.124-1.358A17.775 17.775 0 0 1 26.55 4.672 17.78 17.78 0 0 1 38.583 0c9.831 0 17.829 7.997 17.83 17.828 0 3.69-1.118 7.752-3.233 10.842l-7.767 11.489zM33.732 24.616a1.194 1.194 0 0 0-1.191-1.121c-.657 0-1.192.795-1.192 1.192v.151c0 .658.535 1.462 1.192 1.462h1.274l-.083-1.684zm2.728 3.908.794 13.776h2.491l.794-13.776H36.46zm5.31 15.972h-4.89v1.844c0 .844-.106 1.531.738 1.531h1.929c.844 0 2.223-.687 2.223-1.531v-1.844zM44.457 26.3c.658 0 1.193-.804 1.193-1.462v-.151c0-.397-.535-1.192-1.193-1.192-.63 0-1.153.493-1.19 1.121l-.083 1.684h1.273zm-29.613-6.923c-.237.207-.53.309-.624.309-.545 0-.889-.144-.38-.424-1.21-.518-1.159-1.305-.642-1.76l2.721-2.389a1.247 1.247 0 0 1 1.76.115c.454.517 1.141 1.305-.115 1.759l-2.72 2.39zm1.897-9.91c-.292 0-.585-.101-.822-.31l-2.721-2.388c-.517-.455-.568-1.242.642-.869-.302-1.409.486-1.46 1.004-1.005l2.72 2.388c1.256.455.569 1.243.115 2.147-.247-.106.201.037-.938.037z"/>
</svg>
