<svg xmlns="http://www.w3.org/2000/svg" width="28" height="32">
    <path fill-rule="evenodd" fill="#3499EA" d="M27.423 27.176c-.154 1.784-.668 1.722-1.449 2.261l-1.343.926c-2.031 1.4-4.47 1.864-6.767 1.48-2.298-.384-4.454-1.614-5.92-3.6l-1.992-2.694a.88.88 0 0 1 .21-1.256c.416.407.997-.19 1.297.216l1.992 2.697c2.105 3.334 5.998 3.742 9.113 2.25l-3.635-4.918a.882.882 0 0 1 .21-1.257c.416-.286.997.639 1.297.216l3.688 4.993.763-.526a1.65 1.65 0 0 0 .394-2.358l-4.053-5.485a1.788 1.788 0 0 0-2.436-.406l-.366.252c-.556.924-3.214.61-4.181-.699l-2.898-3.922a2.845 2.845 0 0 1-.563-1.835L6.942 8.312c-.301-.406-.207-.968.209-.752.416-.791.997-.694 1.298-.287l3.2 4.332c.115-.11.239-.213.571-.306l.168.181c.781-.971.957-2.028.394-2.791L8.73 3.204c-.563-.762-.99-.945-2.437-.407l-1.343.927a6.852 6.852 0 0 0-1.631 9.768l2.644 4.198c.3-.214.206.69-.21.635a.952.952 0 0 1-1.297-.216l-2.644-3.578C-1.119 10.562.2 5.53 3.862 2.251l1.344-.926c1.611-1.11 4.534-.734 5.031.84l4.052 5.485c1.163 1.575 1.581 3.758-.813 4.87l-.366.252a1.08 1.08 0 0 0-.457.713c-.048.289.023 1.185.201.822l2.898 3.923a1.167 1.167 0 0 0 1.587.264l.365-.252c1.612-1.11 3.869-.733 5.031 1.588l4.052 4.737c.564.763.79 1.688.636 2.609zM7.239 20.339a.95.95 0 0 1 1.298.217.89.89 0 0 1 .164.672.895.895 0 0 1-.373.582c-.199.137-.451.39-.692.152-.241-.04-.462-.175-.336-.369-.413-.194-.472-.439-.433-.671.039-.234.543-.447.372-.583z"/>
</svg>
