<svg xmlns="http://www.w3.org/2000/svg" width="22" height="23">
    <defs>
        <filter filterUnits="userSpaceOnUse" id="bqqf7kcr8a" x="0" y="0" width="22" height="23">
            <feOffset in="SourceAlpha" dy="1"/>
            <feGaussianBlur result="blurOut"/>
            <feFlood flood-color="#000" result="floodOut"/>
            <feComposite operator="atop" in="floodOut" in2="blurOut"/>
            <feComponentTransfer>
                <feFuncA type="linear" slope=".25"/>
            </feComponentTransfer>
            <feMerge>
                <feMergeNode/>
                <feMergeNode in="SourceGraphic"/>
            </feMerge>
        </filter>
    </defs>
    <g filter="url(#bqqf7kcr8a)">
        <path fill-rule="evenodd" fill="#FFF" d="M15.928 21.997H6.7c-3.977 0-6.7-2.724-6.7-6.071V6.67C0 2.719 2.723.4 6.7.4h9.228c3.347 0 6.071 2.319 6.071 6.27v9.256a6.079 6.079 0 0 1-6.071 6.071zm4.542-6.071V6.67c0-2.875-2.271-4.722-4.542-4.722H6.7c-2.901 0-4.749 1.847-4.749 4.722v9.256c0 2.27 1.848 4.514 4.749 4.514h9.228c2.271 0 4.542-2.244 4.542-4.514zm-3.564-9.391a1.434 1.434 0 0 1-1.432-1.431c0-.378.154-.747.421-.194.265-1.085.634-1.239 1.011-1.239.377 0 .746.154 1.012 1.239.267-.553.419-.184.419.194a1.435 1.435 0 0 1-1.431 1.431zm-5.907 10.13a5.675 5.675 0 0 1-5.669-5.668 5.675 5.675 0 0 1 5.669-5.669 5.675 5.675 0 0 1 5.669 5.669 5.675 5.675 0 0 1-5.669 5.668zm0-9.385a3.72 3.72 0 0 0-3.717 3.716c0 2.464 1.668 3.717 3.717 3.717 2.481 0 3.717-1.253 3.717-3.717 0-2.049-1.226-3.716-3.717-3.716z"/>
    </g>
</svg>
