<svg xmlns="http://www.w3.org/2000/svg" width="22" height="22">
    <path fill-rule="evenodd" fill="#2E2E2E" d="M15.927 21.996H6.7c-3.978 0-6.7-2.723-6.7-6.07V6.67C0 2.718 2.722.4 6.7.4h9.227c3.348 0 6.072 2.318 6.072 6.27v9.256a6.078 6.078 0 0 1-6.072 6.07zm4.543-6.07V6.67c0-2.875-2.271-4.722-4.543-4.722H6.7c-2.901 0-4.749 1.847-4.749 4.722v9.256c0 2.27 1.848 4.514 4.749 4.514h9.228c2.271 0 4.542-2.244 4.542-4.514zm-3.565-9.391c-.376 0-.745-.154-1.011-.42a1.44 1.44 0 0 1-.42-1.011c0-.378.154-.747.42-.194.266-1.085.635-1.238 1.011-1.238.378 0 .747.153 1.013 1.238.267-.553.419-.184.419.194a1.435 1.435 0 0 1-1.432 1.431zm-5.906 10.129a5.674 5.674 0 0 1-5.669-5.668 5.676 5.676 0 0 1 5.669-5.669 5.676 5.676 0 0 1 5.669 5.669 5.674 5.674 0 0 1-5.669 5.668zm0-9.384a3.72 3.72 0 0 0-3.717 3.716c0 2.464 1.667 3.717 3.717 3.717 2.481 0 3.717-1.253 3.717-3.717 0-2.049-1.226-3.716-3.717-3.716z"/>
</svg>
