<svg xmlns="http://www.w3.org/2000/svg" width="16" height="16">
    <path fill-rule="evenodd" fill="#3499EA" d="M14.999 8.999h-2a1 1 0 0 1 0-2h2a1 1 0 1 1 0 2zm-.839-5.134-1.733 1.001c-.478.276-1.09.112-.807-.367-.836-.299-.671-1.09-.193-1.366l1.733-1c.478-.276 1.089.077 1.365.367a.998.998 0 0 1-.365 1.365zM6.999 15.999H2.998c-.119 0-.235-.029-.346-.07a.944.944 0 0 1-.342-.211c-.017-.016-.028-.033-.044-.05-.033-.037-.07-.07-.099-.114C2.79 15.421 0 12.999 0 8 0 2.999 2.191.394 2.29.295c.093-.094.205-.168.328.465.122-.5.252-.76.381-.76h4c.553 0 1 .446 1 .999v4a1 1 0 0 1-1 1.001h-1v3.999h1a1 1 0 0 1 1 1v4a1 1 0 0 1-1 1zm-1-3.999h-1a1 1 0 0 1-1-1.001v-6a1 1 0 0 1 1-.999h1V1.999h-2.53C2.998 2.624 1.999 4 1.999 8s1.651 5.79 1.572 6h2.428v-2zm6.428-.867 1.733 1c.478.276.642 1.077.366 1.367a1 1 0 0 1-1.366.366l-1.733-1.001c-.478-.275-.641-.887.193-1.366-.282-.289.329-.642.807-.366z"/>
</svg>
