<svg xmlns="http://www.w3.org/2000/svg" width="25" height="26">
    <defs>
        <filter filterUnits="userSpaceOnUse" id="x17cshinla" x="0" y="0" width="25" height="26">
            <feOffset in="SourceAlpha" dy="1"/>
            <feGaussianBlur result="blurOut"/>
            <feFlood flood-color="#000" result="floodOut"/>
            <feComposite operator="atop" in="floodOut" in2="blurOut"/>
            <feComponentTransfer>
                <feFuncA type="linear" slope=".25"/>
            </feComponentTransfer>
            <feMerge>
                <feMergeNode/>
                <feMergeNode in="SourceGraphic"/>
            </feMerge>
        </filter>
    </defs>
    <g filter="url(#x17cshinla)">
        <path fill-rule="evenodd" fill="#FFF" d="m24.423 15.937-.007.028c-.589 2.359-3.245 4.89-5.684 5.417l-.027.006a32.041 32.041 0 0 1-5.944.557c-.584 0-1.169-.017-.961-.049l-3.485 2.773c-.667.687-1.839.22-1.839-.734v-2.632c-2.348-.665-4.805-3.08-5.37-5.338l.884-.028C.371 12.644.371 9.303 1.99 6.1l-.884-.119C1.695 3.621 4.351 1.92 6.789.565L6.817.56a62.785 62.785 0 0 1 11.888 0l.028.005c2.438 1.355 5.094 3.056 5.683 5.416l.007.119c.728 3.203.728 6.544 0 9.837zm-2.132-9.45c-.393-1.539-2.408-3.137-4.011-3.805a29.736 29.736 0 0 0-11.039 0C5.639 3.35 3.624 4.948 3.23 6.487a20.702 20.702 0 0 0 0 8.973c.394 1.538 2.409 3.451 4.011 3.805h.001a.15.15 0 0 1 .124.148v4.361c0 .217.269 1.216.421.168l2.092-2.128 1.966-1.999a.151.151 0 0 1 .112-.044c2.733.058 4.226-.112 6.323-.506 1.602-.354 3.618-2.267 4.011-3.805a20.671 20.671 0 0 0 0-8.973zm-3.796 5.112c-.237.003-.343-.192-.359-.402-.03-.415.714-.834.134-1.247-.549-2.181-2.304-3.984-4.495-4.371-.329-.059-.667-.073-1.001-.109-.211-.021-.487-.034-.534-.293-.04-.218.146-.392.356-.403.057-.004.114 0 .171 0 2.954.08 5.381 2.022 5.901 4.917.089.492.12.996.16 1.496.016.211-.104.41-.333.412zm-5.673-6.824.913.025c1.107.031-1.016-.026-.968-.026l.064.002-.009-.001zm-.047-.001.047.001-.055-.001h.008zm.003 1.874c.009-.189.147-.323.353-.311.678.038 1.333.184 2.539.5.623.643 1.323 1.657 1.528 3.012.009.061.024.123.028.491.012-.155.019-.004.031.197-.005.037-.008.123-.029.205-.079.618-.529.978-.632.033a.86.86 0 0 1-.035-.282c-.001-.621-.137-1.238-.453-1.779a3.32 3.32 0 0 0-1.401-1.301c-.352-.171-.732-.278-1.117.317-.168-.28-.338-.44.24-.23-.952-.523-1.062-.653-1.052-.852zm2.362 3.463c-.143-.156-.157-.314-.195-.467-.075-.299-.235.016-.49-.761-.12-.087-.256-.15.105-.192-.686-.052-.874-.036-1.055-.08-.196-.048-.305-.207-.274-.389.028.348.191-.295.375-.282 1.145.28 1.964.669 2.081 2.004.008.436.018.193-.003.285a.292.292 0 0 1-.261.236c.004-.001-.003 0 0 0h.008l-.012.001a.591.591 0 0 1-.075.001l.019-.001.052-.001c-.243.003-.015-.131-.275-.354zm-2.148 3.812c.26.387.522.232.821.199.503.498.665-.605 1.017-.889.344-.279.784-.283 1.154-.051.37.233.73.483 1.716.734-.279.247.07.49 1.23.772-.526.27-.419.626-.594.994-.186.674-.787 1.234-1.459 1.592-.19.101-.417.133-.631.198-.247-.073-.481-.124-.699-.213-2.259-.927-4.337-2.125-5.984-3.961-.937-1.043-1.67-1.528-2.289-3.468-.294-.592-.541-1.207-.794-1.71-.23-.665.109-1.239.466-1.659.335.209.766-.695 1.232-.917.365-.174.724-.074.99.232.575.662 1.103 1.356 1.531 2.123.263.471.191 1.047-.286 1.368-.116.078-.221.169.427.257-.851.077-.94.156-1.005.26a.71.71 0 0 0-.048.625c.588 2.491 1.579 2.844 3.205 3.514z"/>
    </g>
</svg>
