<svg xmlns="http://www.w3.org/2000/svg" width="26" height="16">
    <defs>
        <filter filterUnits="userSpaceOnUse" id="q13jee25fa" x="0" y="0" width="26" height="16">
            <feOffset in="SourceAlpha" dy="1"/>
            <feGaussianBlur result="blurOut" stdDeviation="1"/>
            <feFlood flood-color="#000" result="floodOut"/>
            <feComposite operator="atop" in="floodOut" in2="blurOut"/>
            <feComponentTransfer>
                <feFuncA type="linear" slope=".25"/>
            </feComponentTransfer>
            <feMerge>
                <feMergeNode/>
                <feMergeNode in="SourceGraphic"/>
            </feMerge>
        </filter>
    </defs>
    <g filter="url(#q13jee25fa)">
        <path fill-rule="evenodd" fill="#FFF" d="M12.253 12.82h1.374s.793-.045.628-.27c.195-.206.189-.593.189-.593s-.027-1.809.829-2.077c.844-.261 1.928 1.751 3.076 2.524.869.586 1.529.455 1.529.455l3.072-.039s1.607-.096.845-1.337c-.062-.103-.444-.917-2.284-2.596-1.926-1.751-1.668-1.468.652-4.503 1.413-1.847 1.978-2.975 1.801-3.458-.168-.462-1.207-.341-1.207-.341l-3.459.022s.122-.034-.446.076c-.186.109-.305.797-.305.797s-.548.997-1.278 2.214c-1.54 2.568-2.156 2.701-2.407 2.544-.586-.373-.44-1.492-.44-2.288 0-2.489.385-3.523-.748-3.791C13.298.67 13.21.1 12.59 0c-1.765.13-2.809.2-3.401.287-.393.189-.697.61-.512.635.229.03.747.678 1.021.505.832.472.702 1.533.702 1.533s-.156 2.929-.836 3.291c.416.251-1.105-.257-1.704-2.587-1.477-1.192-2.009-2.509-2.009-2.509S5.749.907 5.566.777C5.345.617 5.35.563 5.35.563L1.748.585s-.493.014-.008.226c-.827.188-.13.573-.13.573s2.024 5.907 4.938 8.884c2.671 2.73 5.705 2.552 5.705 2.552z"/>
    </g>
</svg>
