<svg xmlns="http://www.w3.org/2000/svg" width="25" height="25">
    <defs>
        <filter filterUnits="userSpaceOnUse" id="9tu9lapaza" x="0" y="0" width="25" height="25">
            <feOffset in="SourceAlpha" dy="1"/>
            <feGaussianBlur result="blurOut" stdDeviation="1"/>
            <feFlood flood-color="#000" result="floodOut"/>
            <feComposite operator="atop" in="floodOut" in2="blurOut"/>
            <feComponentTransfer>
                <feFuncA type="linear" slope=".25"/>
            </feComponentTransfer>
            <feMerge>
                <feMergeNode/>
                <feMergeNode in="SourceGraphic"/>
            </feMerge>
        </filter>
    </defs>
    <g filter="url(#9tu9lapaza)">
        <path fill-rule="evenodd" fill="#FFF" d="M11.534 21.324a10.83 10.83 0 0 1-4.604-1.1l-5.411 1.26c-.296.071-.566-.187-.369-.184l1.002-5.727a10.366 10.366 0 0 1-1.166-4.756C.969 5.199 5.471.526 11.177.257 17.448.35 22.605 4.975 22.41 11.122c-.182 5.735-5.044 10.288-10.876 10.202zm6.099-16.375c-1.143-1.558-3.692-2.417-5.932-2.417a8.48 8.48 0 0 0-5.933 2.417 8.136 8.136 0 0 0-2.457 5.836c0 1.32.307 2.581.912 3.746l.371.715-.698 3.334 3.317-.773.754.371c1.165.569 2.422 1.182 3.734 1.182 2.24 0 4.789-1.18 5.932-2.74 1.571-.88 3.277-3.649 3.267-5.835 0-2.205-1.682-4.276-3.267-5.836zm-2.149 10.854c-.854.338-3.602.008-6.327-2.493-2.358-2.165-2.982-3.969-2.834-5.399.083-.811 1.617-1.544 1.35-2.024 1.007-.33.999-.194 1.208.271L9.754 8.1a.753.753 0 0 1-.095.774l-.443.564c.074.237.184.562-.06.823.527.903 2.593 2.711 3.574 3.101.41.113.608.045.823-.171l1.047-.509c-.341-.198-.048-.275.225-.198l2.076 1.226c.497-.5.716.072.439.502-.407.629-1.05 1.399-1.856 1.591z"/>
    </g>
</svg>
