<svg xmlns="http://www.w3.org/2000/svg" width="16" height="16">
    <path fill-rule="evenodd" fill="#3499EA" d="M15.554 15.831c-.17.114-.363.168-.354.168-.523 0-.839-.156-1.033-.445.823-.098-1.814-2.555-6.168-2.555-4.414 0-6.15 2.529-6.167 2.555-.307.576-.928.583-1.387.277-.315-.306-.307-.926-.278-1.387.094-.139 2.36-3.445 7.832-3.445 5.473 0 7.739 3.306 7.832 3.445.307.461.299 1.081-.277 1.387zM10.999 10a1 1 0 0 1-1-1.001v-5a2 2 0 1 0-4 0v5a1 1 0 1 1-2 0v-5a3.999 3.999 0 0 1 4-3.999c2.209 0 4 1.789 4 3.999v5a1 1 0 0 1-1 1.001z"/>
</svg>
