<svg xmlns="http://www.w3.org/2000/svg" width="21" height="16">
    <defs>
        <filter filterUnits="userSpaceOnUse" id="l7zqretjba" x="0" y="0" width="21" height="16">
            <feOffset in="SourceAlpha" dy="1"/>
            <feGaussianBlur result="blurOut" stdDeviation="1"/>
            <feFlood flood-color="#000" result="floodOut"/>
            <feComposite operator="atop" in="floodOut" in2="blurOut"/>
            <feComponentTransfer>
                <feFuncA type="linear" slope=".25"/>
            </feComponentTransfer>
            <feMerge>
                <feMergeNode/>
                <feMergeNode in="SourceGraphic"/>
            </feMerge>
        </filter>
    </defs>
    <g filter="url(#l7zqretjba)">
        <path fill-rule="evenodd" fill="#FFF" d="M18.629 2.34C18.421 1.238 17.813.611 17.42.397 15.634 0 9.999 0 9.999 0S4.365 0 2.957.383C2.2.596 1.578 1.238 1.37 2.34 1 3.486 1 6.499 1 6.499s0 3.029.37 4.466a2.293 2.293 0 0 0 1.587 1.637c1.423.397 7.043.397 7.043.397s5.634 0 7.42-.382c.394-.214 1.001-.841 1.209-1.637C19 9.528 19 6.514 19 6.514s.14-3.028-.371-4.174zM8.206 9.283V3.715l4.685 2.784-4.685 2.784z"/>
    </g>
</svg>
