<svg xmlns="http://www.w3.org/2000/svg" width="20" height="22">
    <path fill-rule="evenodd" fill="#2E2E2E" d="M17.999 1.999h-3a1 1 0 0 1 0-1.999h4A1 1 0 0 1 20 .999v20a1 1 0 0 1-1.001 1h-4a1 1 0 1 1 0-2h3v-18zM10.585 10 6.292 5.706a1 1 0 0 1 1.39-1.439l.024.025 6.001 6c.629.63.183 1.708-.708 1.708h-12a1 1 0 0 1 0-2h9.586zm-1.226 3.731a1.001 1.001 0 0 1 1.411.094c.364.416 1.15 1.048-.094 1.411-.012.011-.024.022-.037.031l-3 2.5c-.415.364-1.047 1.123-1.411-.094a1 1 0 0 1 .095-1.411l.037-.031 2.999-2.5z"/>
</svg>
