<svg xmlns="http://www.w3.org/2000/svg" width="18" height="18">
    <path fill-rule="evenodd" fill="#3499EA" d="m13.472 12.53 4.25 3.767c.385.398 1.238 1.031-.024 1.415-.389 1.148-1.004 1.148-1.392 0l-4.913-4.906c-.193-.391-.193-1.024 0-1.414a5.497 5.497 0 0 0-.001-7.781 5.515 5.515 0 0 0-7.792.002 5.496 5.496 0 0 0 .001 7.78c2.299 1.405 4.079 1.943 5.384 1.406.533-.148 1.725.162 1.235.693.149.758.37 1.085-.694 1.234C5.53 15.843 1.384 13.514.265 9.524c.587-3.99 1.214-8.131 5.21-9.248 3.996.563 8.142 1.213 9.26 5.203.636 2.268.169 4.702-1.262 7.051h-.001z"/>
</svg>
